<svg width="40" height="28" viewBox="0 0 40 28" fill="none" xmlns="http://www.w3.org/2000/svg">
<path d="M8.78049 9.99024C13.6083 9.99024 17.522 13.904 17.522 18.7317C17.522 23.5594 13.6083 27.4732 8.78049 27.4732C3.9527 27.4732 0.0390244 23.5594 0.0390244 18.7317L0 17.4829C0 7.82736 7.82736 0 17.4829 0V4.99512C14.1474 4.99512 11.0114 6.29409 8.65272 8.65272C8.19871 9.10681 7.78435 9.58993 7.41058 10.0974C7.85694 10.0272 8.31438 9.99024 8.78049 9.99024ZM31.2585 9.99024C36.0862 9.99024 40 13.904 40 18.7317C40 23.5594 36.0862 27.4732 31.2585 27.4732C26.4308 27.4732 22.5171 23.5594 22.5171 18.7317L22.478 17.4829C22.478 7.82736 30.3053 0 39.961 0V4.99512C36.6255 4.99512 33.4893 6.29409 31.1308 8.65272C30.6767 9.10681 30.2623 9.58993 29.8885 10.0974C30.3349 10.0272 30.7924 9.99024 31.2585 9.99024Z" fill="#5D6AFB"/>
</svg>
